<svg width="20" height="20" viewBox="0 0 20 20" fill="none" xmlns="http://www.w3.org/2000/svg">
<path d="M10 5.99423C7.7832 5.99423 5.99414 7.7833 5.99414 10.0001C5.99414 12.2169 7.7832 14.006 10 14.006C12.2168 14.006 14.0059 12.2169 14.0059 10.0001C14.0059 7.7833 12.2168 5.99423 10 5.99423ZM10 12.6036C8.56641 12.6036 7.39649 11.4337 7.39649 10.0001C7.39649 8.5665 8.56641 7.39658 10 7.39658C11.4336 7.39658 12.6035 8.5665 12.6035 10.0001C12.6035 11.4337 11.4336 12.6036 10 12.6036ZM14.1699 4.89658C13.6523 4.89658 13.2344 5.31455 13.2344 5.83212C13.2344 6.3497 13.6523 6.76767 14.1699 6.76767C14.6875 6.76767 15.1055 6.35166 15.1055 5.83212C15.1056 5.70922 15.0815 5.5875 15.0346 5.47392C14.9876 5.36035 14.9187 5.25715 14.8318 5.17025C14.7449 5.08334 14.6417 5.01444 14.5281 4.96748C14.4146 4.92052 14.2928 4.89642 14.1699 4.89658ZM17.8086 10.0001C17.8086 8.92197 17.8184 7.85361 17.7578 6.77744C17.6973 5.52744 17.4121 4.41806 16.498 3.504C15.582 2.58798 14.4746 2.30478 13.2246 2.24423C12.1465 2.18369 11.0781 2.19345 10.002 2.19345C8.92383 2.19345 7.85547 2.18369 6.7793 2.24423C5.5293 2.30478 4.41992 2.58994 3.50586 3.504C2.58984 4.42001 2.30664 5.52744 2.24609 6.77744C2.18555 7.85556 2.19531 8.92392 2.19531 10.0001C2.19531 11.0763 2.18555 12.1466 2.24609 13.2227C2.30664 14.4727 2.5918 15.5821 3.50586 16.4962C4.42188 17.4122 5.5293 17.6954 6.7793 17.756C7.85742 17.8165 8.92578 17.8067 10.002 17.8067C11.0801 17.8067 12.1484 17.8165 13.2246 17.756C14.4746 17.6954 15.584 17.4102 16.498 16.4962C17.4141 15.5802 17.6973 14.4727 17.7578 13.2227C17.8203 12.1466 17.8086 11.0782 17.8086 10.0001ZM16.0898 14.6056C15.9473 14.961 15.7754 15.2267 15.5 15.5001C15.2246 15.7755 14.9609 15.9474 14.6055 16.0899C13.5781 16.4981 11.1387 16.4063 10 16.4063C8.86133 16.4063 6.41992 16.4981 5.39258 16.0919C5.03711 15.9493 4.77149 15.7774 4.49805 15.502C4.22266 15.2267 4.05078 14.963 3.9082 14.6075C3.50195 13.5782 3.59375 11.1388 3.59375 10.0001C3.59375 8.86142 3.50195 6.42001 3.9082 5.39267C4.05078 5.0372 4.22266 4.77158 4.49805 4.49814C4.77344 4.2247 5.03711 4.05087 5.39258 3.9083C6.41992 3.50205 8.86133 3.59384 10 3.59384C11.1387 3.59384 13.5801 3.50205 14.6074 3.9083C14.9629 4.05087 15.2285 4.22275 15.502 4.49814C15.7773 4.77353 15.9492 5.0372 16.0918 5.39267C16.498 6.42001 16.4063 8.86142 16.4063 10.0001C16.4063 11.1388 16.498 13.5782 16.0898 14.6056Z" fill="#CD05FF"/>
</svg>
