<svg width="17" height="17" viewBox="0 0 17 17" fill="none" xmlns="http://www.w3.org/2000/svg">
<g clip-path="url(#clip0)">
<path d="M3.90518 16.0329V5.55287H0.689769V16.0329H3.90518ZM2.29789 4.12114C3.41916 4.12114 4.1171 3.3164 4.1171 2.31074C4.09621 1.2824 3.4192 0.5 2.31917 0.5C1.2193 0.5 0.500061 1.28242 0.500061 2.31074C0.500061 3.31645 1.19783 4.12114 2.2769 4.12114H2.29779H2.29789ZM5.6849 16.0329H8.90031V10.1803C8.90031 9.8671 8.9212 9.5542 9.00611 9.3303C9.23856 8.7045 9.76762 8.05634 10.6559 8.05634C11.8194 8.05634 12.2849 9.01739 12.2849 10.4262V16.0328H15.5001V10.0237C15.5001 6.80461 13.9137 5.30683 11.7982 5.30683C10.0636 5.30683 9.30202 6.35719 8.87892 7.07258H8.90038V5.55265H5.68497C5.72717 6.53603 5.68497 16.0326 5.68497 16.0326L5.6849 16.0329Z" fill="#CD05FF"/>
</g>
<defs>
<clipPath id="clip0">
<rect width="16.25" height="15.5328" fill="white" transform="translate(0.5 0.5)"/>
</clipPath>
</defs>
</svg>
