<svg width="32" height="32" viewBox="0 0 32 32" fill="none" xmlns="http://www.w3.org/2000/svg">
<path d="M16 31C24.2843 31 31 24.2843 31 16C31 7.71573 24.2843 1 16 1C7.71573 1 1 7.71573 1 16C1 24.2843 7.71573 31 16 31Z" fill="#ED4C5C"/>
<path d="M20.65 19.5L20.7 16.8L18 16L20.7 15.2L20.65 12.5L22.3 14.65L25 13.85L23.35 16L25 18.15L22.3 17.35L20.65 19.5Z" fill="white"/>
<path d="M16.6 22C13.3 22 10.65 19.3 10.65 16C10.65 12.7 13.3 10 16.6 10C17.85 10 19 10.4 20 11.05C18.65 9.5 16.65 8.5 14.4 8.5C10.3 8.5 7 11.85 7 16C7 20.15 10.3 23.5 14.4 23.5C16.65 23.5 18.65 22.5 20 20.95C19.05 21.6 17.9 22 16.6 22Z" fill="white"/>
</svg>
