<svg width="30" height="30" viewBox="0 0 30 30" fill="none" xmlns="http://www.w3.org/2000/svg">
<path d="M23 2.3C20.65 0.85 17.95 0 15 0V2.3H23Z" fill="#ED4C5C"/>
<path d="M15 4.5998H25.8C24.95 3.7498 24 2.9498 23 2.2998H15V4.5998Z" fill="white"/>
<path d="M15 6.89961H27.65C27.1 6.04961 26.5 5.29961 25.85 4.59961H15V6.89961Z" fill="#ED4C5C"/>
<path d="M15 9.20039H28.85C28.5 8.40039 28.1 7.60039 27.65 6.90039H15V9.20039Z" fill="white"/>
<path d="M15 11.5002H29.6C29.4 10.7002 29.15 9.9502 28.85 9.2002H15V11.5002Z" fill="#ED4C5C"/>
<path d="M15 13.8498H29.95C29.9 13.0498 29.75 12.2998 29.6 11.5498H15V13.8498Z" fill="white"/>
<path d="M29.95 13.8496H15V14.9996H0C0 15.3996 -4.84288e-08 15.7496 0.05 16.1496H29.95C30 15.7496 30 15.3996 30 14.9996C30 14.5996 30 14.1996 29.95 13.8496Z" fill="#ED4C5C"/>
<path d="M0.400049 18.4504H29.6C29.8001 17.7004 29.9001 16.9504 29.9501 16.1504H0.0500488C0.100049 16.9004 0.200049 17.7004 0.400049 18.4504Z" fill="white"/>
<path d="M1.1499 20.7502H28.8499C29.1499 20.0002 29.3999 19.2502 29.5999 18.4502H0.399902C0.599902 19.2502 0.849902 20.0002 1.1499 20.7502Z" fill="#ED4C5C"/>
<path d="M2.3499 23.05H27.6499C28.0999 22.3 28.4999 21.55 28.8499 20.75H1.1499C1.4999 21.55 1.8999 22.3 2.3499 23.05Z" fill="white"/>
<path d="M3.8 25.3H25.5C26.15 24.6 26.8 23.8 27.3 23H2C2.5 23.85 3.15 24.6 3.8 25.3Z" fill="#ED4C5C"/>
<path d="M6.9499 27.6496H23.0499C24.0999 26.9996 24.9999 26.1996 25.8499 25.3496H4.1499C4.9999 26.2496 5.9499 26.9996 6.9499 27.6496Z" fill="white"/>
<path d="M15 30.0004C17.95 30.0004 20.6999 29.1504 23.0499 27.6504H6.94995C9.29995 29.1504 12.05 30.0004 15 30.0004Z" fill="#ED4C5C"/>
<path d="M7 2.3C5.95 2.95 5 3.75 4.15 4.6C3.45 5.3 2.85 6.1 2.35 6.9C1.9 7.65 1.45 8.4 1.15 9.2C0.85 9.95 0.6 10.7 0.4 11.5C0.2 12.25 0.0999999 13 0.05 13.8C-4.84288e-08 14.2 0 14.6 0 15H15V0C12.05 0 9.35 0.85 7 2.3Z" fill="#428BC1"/>
<path d="M11.5 0.5L11.75 1.25H12.5L11.9 1.75L12.1 2.5L11.5 2.05L10.9 2.5L11.1 1.75L10.5 1.25H11.25L11.5 0.5Z" fill="white"/>
<path d="M13.5 3.5L13.75 4.25H14.5L13.9 4.75L14.1 5.5L13.5 5.05L12.9 5.5L13.1 4.75L12.5 4.25H13.25L13.5 3.5Z" fill="white"/>
<path d="M9.5 3.5L9.75 4.25H10.5L9.9 4.75L10.1 5.5L9.5 5.05L8.9 5.5L9.1 4.75L8.5 4.25H9.25L9.5 3.5Z" fill="white"/>
<path d="M11.5 6.5L11.75 7.25H12.5L11.9 7.75L12.1 8.5L11.5 8.05L10.9 8.5L11.1 7.75L10.5 7.25H11.25L11.5 6.5Z" fill="white"/>
<path d="M7.5 6.5L7.75 7.25H8.5L7.9 7.75L8.1 8.5L7.5 8.05L6.9 8.5L7.1 7.75L6.5 7.25H7.25L7.5 6.5Z" fill="white"/>
<path d="M3.5 6.5L3.75 7.25H4.5L3.9 7.75L4.1 8.5L3.5 8.05L2.9 8.5L3.1 7.75L2.5 7.25H3.25L3.5 6.5Z" fill="white"/>
<path d="M13.5 9.5L13.75 10.25H14.5L13.9 10.75L14.1 11.5L13.5 11.05L12.9 11.5L13.1 10.75L12.5 10.25H13.25L13.5 9.5Z" fill="white"/>
<path d="M9.5 9.5L9.75 10.25H10.5L9.9 10.75L10.1 11.5L9.5 11.05L8.9 11.5L9.1 10.75L8.5 10.25H9.25L9.5 9.5Z" fill="white"/>
<path d="M5.5 9.5L5.75 10.25H6.5L5.9 10.75L6.1 11.5L5.5 11.05L4.9 11.5L5.1 10.75L4.5 10.25H5.25L5.5 9.5Z" fill="white"/>
<path d="M11.5 12.5L11.75 13.25H12.5L11.9 13.75L12.1 14.5L11.5 14.05L10.9 14.5L11.1 13.75L10.5 13.25H11.25L11.5 12.5Z" fill="white"/>
<path d="M7.5 12.5L7.75 13.25H8.5L7.9 13.75L8.1 14.5L7.5 14.05L6.9 14.5L7.1 13.75L6.5 13.25H7.25L7.5 12.5Z" fill="white"/>
<path d="M3.5 12.5L3.75 13.25H4.5L3.9 13.75L4.1 14.5L3.5 14.05L2.9 14.5L3.1 13.75L2.5 13.25H3.25L3.5 12.5Z" fill="white"/>
<path d="M4.90005 5.5L5.50005 5.05L6.10005 5.5L5.85005 4.75L6.45005 4.25H5.70005L5.50005 3.5L5.25005 4.25H4.55005L5.15005 4.7L4.90005 5.5Z" fill="white"/>
<path d="M0.899951 11.5L1.49995 11.05L2.09995 11.5L1.84995 10.75L2.44995 10.25H1.74995L1.49995 9.5L1.24995 10.25H0.749951C0.749951 10.3 0.699951 10.35 0.699951 10.4L1.09995 10.7L0.899951 11.5Z" fill="white"/>
</svg>
